<svg id="Layer_1" data-name="Layer 1" xmlns="http://www.w3.org/2000/svg" viewBox="0 0 310 310"><defs><style>.cls-1,.cls-2,.cls-3{fill:#fff;}.cls-1{opacity:0.75;}.cls-3{opacity:0.9;}</style></defs><title>logotranslucent</title><path class="cls-1" d="M55,207.5a52.5,52.5,0,0,1,0-105h47.5V55a52.5,52.5,0,0,1,105,0v52.5H155A47.72,47.72,0,0,0,107.52,154c0,.39,0,.69,0,1v52.5Z"/><path class="cls-2" d="M155,5a50.16,50.16,0,0,1,50,50v50H155a50,50,0,0,0-50,49c0,.35,0,.69,0,1v50H55a50,50,0,0,1,0-100h50V55A50.15,50.15,0,0,1,155,5m0-5a55.06,55.06,0,0,0-55,55v45H55a55,55,0,0,0,0,110h55V155c0-.25,0-.5,0-.75v-.19A45.2,45.2,0,0,1,155,110h55V55A55.16,55.16,0,0,0,155,0Z"/><path class="cls-3" d="M155,307.5A52.56,52.56,0,0,1,102.5,255V155c0-.4,0-.78,0-1.18A52.49,52.49,0,0,1,155,102.5H255a52.5,52.5,0,0,1,0,105H207.5V255A52.56,52.56,0,0,1,155,307.5Z"/><path class="cls-2" d="M255,105a50,50,0,0,1,0,100H205v50a50,50,0,0,1-100,0V155c0-.35,0-.69,0-1a50,50,0,0,1,50-49H255m0-5H155a55,55,0,0,0-55,53.77c0,.46,0,.87,0,1.23V255a55,55,0,0,0,110,0V210h45a55,55,0,0,0,0-110Z"/></svg>