<svg id="Layer_1" data-name="Layer 1" xmlns="http://www.w3.org/2000/svg" viewBox="0 0 310 310"><defs><style>.cls-1{fill:#a2ddf1;}.cls-2{fill:#fff;}.cls-3{fill:#6dcff6;}</style></defs><title>logosolid</title><path class="cls-1" d="M55,207.5a52.5,52.5,0,0,1,0-105h47.5V55a52.5,52.5,0,0,1,105,0V155.5h-5a47.5,47.5,0,1,0-47.5,47v5Z"/><path class="cls-2" d="M155,5a50.16,50.16,0,0,1,50,50V155.5A50,50,0,1,0,155,205H55a50,50,0,0,1,0-100h50V55A50.15,50.15,0,0,1,155,5m0-5a55.06,55.06,0,0,0-55,55v45H55a55,55,0,0,0,0,110H155V200a44.75,44.75,0,1,1,45-44.5h10V55A55.16,55.16,0,0,0,155,0Z"/><path class="cls-3" d="M155,307.5A52.56,52.56,0,0,1,102.5,255V155A52.56,52.56,0,0,1,155,102.5H255a52.5,52.5,0,0,1,0,105H207.5V255A52.56,52.56,0,0,1,155,307.5Z"/><path class="cls-2" d="M255,105a50,50,0,0,1,0,100H205v50a50,50,0,0,1-100,0V155a50,50,0,0,1,50-50H255m0-5H155a55.06,55.06,0,0,0-55,55V255a55,55,0,0,0,110,0V210h45a55,55,0,0,0,0-110Z"/></svg>